<svg width="129" height="129" viewBox="0 0 129 129" fill="none" xmlns="http://www.w3.org/2000/svg">
<g clip-path="url(#clip0)">
<line x1="16.6464" y1="122.646" x2="74.6464" y2="64.6464" stroke="#96FFFD"/>
<line x1="74.6464" y1="65.3536" x2="16.6465" y2="7.35356" stroke="#96FFFD"/>
<line x1="128.646" y1="65.3536" x2="70.6464" y2="7.35356" stroke="#96FFFD"/>
<line x1="70.6464" y1="122.646" x2="128.646" y2="64.6464" stroke="#96FFFD"/>
<line x1="54.3536" y1="23.6464" x2="95.3536" y2="64.6465" stroke="#96FFFD"/>
<line x1="0.353553" y1="23.6464" x2="41.3536" y2="64.6465" stroke="#96FFFD"/>
<line x1="0.646447" y1="105.646" x2="41.6465" y2="64.6464" stroke="#96FFFD"/>
<line x1="54.6464" y1="105.646" x2="95.6465" y2="64.6464" stroke="#96FFFD"/>
<line x1="17.2357" y1="122.471" x2="0.770455" y2="104.895" stroke="#96FFFD"/>
<line x1="71.1004" y1="122.342" x2="54.6352" y2="104.766" stroke="#96FFFD"/>
<line x1="0.315415" y1="24.3566" x2="16.9612" y2="6.952" stroke="#96FFFD"/>
<line x1="53.6464" y1="23.6464" x2="70.6464" y2="6.64645" stroke="#96FFFD"/>
<rect width="81.7242" height="22.7721" transform="translate(57.8779 80.8779) rotate(-135)" fill="#96FFFD"/>
<rect width="81.7242" height="22.7721" transform="translate(111.788 81) rotate(-135)" fill="#96FFFD"/>
<rect width="80.7178" height="22.7721" transform="translate(55 105.897) rotate(-45)" fill="#96FFFD"/>
<rect width="80.7178" height="22.7721" transform="translate(1 105.897) rotate(-45)" fill="#96FFFD"/>
</g>
<defs>
<clipPath id="clip0">
<rect width="129" height="129" fill="white" transform="translate(0 129) rotate(-90)"/>
</clipPath>
</defs>
</svg>
