<svg width="480" height="480" viewBox="0 0 480 480" fill="none" xmlns="http://www.w3.org/2000/svg">
<circle cx="240" cy="240" r="225" stroke="#96FFFD" stroke-width="30"/>
<path opacity="0.5" d="M101.591 183.16V182.924C101.591 182.923 101.591 182.922 101.591 182.921M101.591 183.16L101.591 182.921M101.591 183.16L101.592 183.161M101.591 183.16L101.592 183.161M101.591 182.921L102.091 182.92H102.093L102.095 182.92L102.095 182.92M101.591 182.921L101.591 182.92L102.095 182.92M102.095 182.92L102.591 182.919C102.592 183.059 102.592 183.198 102.592 183.337L180.679 247.686L180.716 247.65L181.067 248.006L180.749 248.392L180.709 248.359L103.04 324.981C103.063 325.066 103.087 325.159 103.113 325.261L102.629 325.386L102.278 325.03L102.481 324.83C102.46 324.754 102.441 324.681 102.422 324.607C101.698 321.719 102.301 318.499 102.092 183.573L101.773 183.31L101.592 183.161M102.095 182.92L102.409 182.539L181.385 247.62L181.813 247.973L181.418 248.362L102.98 325.742L102.361 326.352L102.145 325.51C102.111 325.376 102.077 325.252 102.044 325.132C101.961 324.827 101.886 324.549 101.825 324.211C101.74 323.731 101.681 323.123 101.64 322.073C101.558 319.976 101.545 316.034 101.557 307.652C101.561 304.839 101.568 301.524 101.576 297.61C101.616 278.206 101.686 244.059 101.592 183.161M301.306 247.62L300.878 247.973L301.273 248.362L379.711 325.742L380.062 325.386L380.546 325.51C380.581 325.375 380.615 325.249 380.648 325.128C380.73 324.826 380.805 324.551 380.865 324.219C380.951 323.742 381.01 323.138 381.051 322.092C381.132 320.004 381.146 316.072 381.134 307.696C381.13 304.888 381.123 301.58 381.115 297.673C381.075 278.252 381.004 244.03 381.099 182.921L381.101 181.859L380.281 182.534L301.306 247.62ZM241.027 278.222L241.345 278.484L241.663 278.222L380.901 163.451L381.082 163.301V163.065V153.869C381.079 149.887 379.582 146.064 376.912 143.241C374.241 140.417 370.613 138.823 366.823 138.819H366.822L115.869 138.819L115.868 138.819C112.078 138.823 108.45 140.417 105.779 143.241C103.109 146.064 101.612 149.887 101.608 153.869V153.869V163.065V163.301L101.79 163.451L241.027 278.222ZM113.201 335.897V337.093L113.898 336.405C113.915 336.406 113.932 336.406 113.948 336.407C114.099 336.412 114.309 336.416 114.573 336.421C115.103 336.43 115.861 336.439 116.831 336.448C118.771 336.465 121.564 336.481 125.089 336.496C132.139 336.525 142.115 336.551 154.043 336.571C177.9 336.612 209.565 336.634 241.239 336.636C272.913 336.638 304.596 336.62 328.488 336.58C340.434 336.56 350.433 336.534 357.509 336.503C361.047 336.488 363.855 336.471 365.811 336.452C366.788 336.443 367.554 336.434 368.092 336.424C368.361 336.419 368.575 336.414 368.73 336.408C368.866 336.404 369 336.398 369.072 336.386L370.039 336.225L369.341 335.537L290.137 257.419L289.816 257.102L289.468 257.389L245.583 293.562C244.368 294.562 242.877 295.102 241.345 295.102C239.814 295.102 238.322 294.562 237.107 293.562L193.223 257.389L192.875 257.102L192.554 257.419L113.537 335.357L113.201 335.297V335.893V335.897ZM115.852 124.136H366.839C374.274 124.146 381.408 127.273 386.674 132.841C391.942 138.411 394.909 145.968 394.918 153.856V321.561C394.899 329.446 391.929 336.997 386.663 342.565C381.399 348.132 374.27 351.262 366.838 351.282H115.853C108.421 351.262 101.292 348.132 96.0276 342.565C90.7624 336.997 87.7916 329.446 87.7727 321.562V153.856C87.7816 145.968 90.7492 138.411 96.0165 132.841C101.283 127.273 108.417 124.146 115.852 124.136Z" fill="#96FFFD" stroke="#96FFFD"/>
</svg>
