<svg width="480" height="480" viewBox="0 0 480 480" fill="none" xmlns="http://www.w3.org/2000/svg">
<circle cx="240" cy="240" r="225" stroke="#96FFFD" stroke-width="30"/>
<path d="M388.364 313.18L344.653 269.411C329.042 253.779 302.504 260.032 296.26 280.353C291.576 294.422 275.965 302.238 261.916 299.111C230.694 291.295 188.545 250.652 180.739 217.825C176.056 203.756 185.422 188.124 199.472 183.435C219.766 177.182 226.011 150.608 210.4 134.976L166.689 91.2068C154.201 80.2644 135.468 80.2644 124.54 91.2068L94.8793 120.907C65.2187 152.171 98.0015 235.02 171.373 308.49C244.744 381.96 327.481 416.351 358.703 385.087L388.364 355.386C399.292 342.881 399.292 324.122 388.364 313.18Z" fill="#96FFFD"/>
</svg>
