<svg width="480" height="480" viewBox="0 0 480 480" fill="none" xmlns="http://www.w3.org/2000/svg">
<circle cx="240" cy="240" r="225" stroke="#96FFFD" stroke-width="30"/>
<path d="M366.184 357.448C354.888 373.224 338.216 385.704 316.552 394.536C295.144 403.304 269.512 407.816 240.264 407.816C205.192 407.816 175.784 401.736 152.808 389.704C136.392 380.968 122.888 369.16 112.616 354.504C102.216 339.784 97 325.16 97 310.984C97 302.216 100.424 294.536 107.176 288.296C113.864 282.056 122.44 278.952 132.68 278.952C141.064 278.952 148.296 281.416 154.184 286.312C159.784 291.048 164.616 298.024 168.488 306.952C172.808 316.744 177.512 325 182.472 331.432C187.304 337.736 194.184 342.984 202.984 347.112C211.848 351.208 223.784 353.352 238.44 353.352C258.632 353.352 275.208 349.064 287.624 340.712C299.816 332.552 305.704 322.696 305.704 310.664C305.704 301.192 302.6 293.704 296.296 287.848C289.64 281.704 280.872 276.936 270.248 273.64C259.144 270.248 244.072 266.536 225.448 262.696C200.072 257.352 178.536 251.048 161.448 243.816C143.944 236.456 129.8 226.28 119.496 213.576C109 200.584 103.688 184.36 103.688 165.288C103.688 147.112 109.256 130.728 120.264 116.584C131.176 102.536 147.112 91.56 167.688 84.104C187.944 76.712 212.04 73 239.336 73C261.128 73 280.296 75.496 296.328 80.424C312.424 85.352 325.992 92.008 336.648 100.232C347.4 108.552 355.4 117.352 360.392 126.568C365.448 135.848 368.04 145.096 368.04 154.024C368.04 162.632 364.68 170.472 358.024 177.256C351.304 184.104 342.856 187.56 332.936 187.56C323.912 187.56 316.808 185.352 311.912 181.096C307.336 177.096 302.568 170.856 297.32 161.96C291.24 150.568 283.848 141.576 275.4 135.208C267.176 129.032 253.48 125.96 234.6 125.96C217.128 125.96 202.856 129.416 192.296 136.264C182.12 142.824 177.16 150.376 177.16 159.336C177.16 164.808 178.76 169.384 182.056 173.32C185.512 177.544 190.408 181.16 196.616 184.232C203.016 187.4 209.64 189.96 216.264 191.752C223.048 193.608 234.408 196.392 250.056 199.944C269.832 204.104 287.976 208.808 304.04 213.896C320.328 218.984 334.344 225.288 345.864 232.68C357.544 240.2 366.792 249.8 373.384 261.32C379.976 272.936 383.304 287.176 383.304 303.752C383.272 323.56 377.512 341.64 366.184 357.448Z" fill="#96FFFD"/>
</svg>
